<?xml version="1.0" standalone="no"?><!DOCTYPE svg PUBLIC "-//W3C//DTD SVG 1.1//EN" "http://www.w3.org/Graphics/SVG/1.1/DTD/svg11.dtd"><svg t="1744253325999" class="icon" viewBox="0 0 1448 1024" version="1.1" xmlns="http://www.w3.org/2000/svg" p-id="9423" xmlns:xlink="http://www.w3.org/1999/xlink" width="282.8125" height="200"><path d="M1005.078448 162.897363h196.096086v96.327902h-196.096086v-96.327902z" fill="#1fe05d" p-id="9424"></path><path d="M981.684529 442.764321c-16.169326 0-29.242399 13.073072-29.242399 29.242398v94.607761c0 16.169326 13.073072 29.242399 29.242399 29.242399s29.242399-13.073072 29.242399-29.242399v-94.607761c0-16.169326-13.245087-29.242399-29.242399-29.242398zM893.957332 366.218041c-16.169326 0-29.242399 13.073072-29.242398 29.242399v247.700319c0 16.169326 13.073072 29.242399 29.242398 29.242399s29.242399-13.073072 29.242399-29.242399v-247.700319c0-16.169326-13.245087-29.242399-29.242399-29.242399zM397.008567 442.764321c-16.169326 0-29.242399 13.073072-29.242399 29.242398v94.607761c0 16.169326 13.073072 29.242399 29.242399 29.242399s29.242399-13.073072 29.242399-29.242399v-94.607761c0-16.169326-13.073072-29.242399-29.242399-29.242398zM484.735763 366.218041c-16.169326 0-29.242399 13.073072-29.242398 29.242399v247.700319c0 16.169326 13.073072 29.242399 29.242398 29.242399s29.242399-13.073072 29.242399-29.242399v-247.700319c0-16.169326-13.073072-29.242399-29.242399-29.242399zM747.745338 282.275155c-48.335965 0-87.555182 39.219217-87.727196 87.555183v310.485469c-1.204099 15.137242-13.761129 27.178229-29.242399 27.17823s-28.0383-11.868974-29.242398-27.17823V370.002352c0-38.187133 24.426004-70.697799 58.484797-82.738787-9.116748-3.268268-18.921552-4.988409-29.242399-4.98841-48.163951 0-87.383168 38.875189-87.727196 87.03914v311.173526c0.172014 48.335965 39.391231 87.555182 87.727196 87.555183s87.555182-39.219217 87.727197-87.555183V369.830338c1.204099-15.137242 13.761129-27.178229 29.242398-27.17823s28.0383 11.868974 29.242399 27.17823v310.141441c0 38.187133-24.426004 70.697799-58.484797 82.738787 9.116748 3.268268 18.921552 4.988409 29.242398 4.988409 48.163951 0 87.383168-38.875189 87.727197-87.03914V369.658324c-0.172014-48.335965-39.391231-87.383168-87.727197-87.383169z" fill="#1fe05d" p-id="9425"></path></svg>